<?xml version="1.0" standalone="no"?><!DOCTYPE svg PUBLIC "-//W3C//DTD SVG 1.1//EN" "http://www.w3.org/Graphics/SVG/1.1/DTD/svg11.dtd"><svg t="1620900661628" class="icon" viewBox="0 0 1024 1024" version="1.1" xmlns="http://www.w3.org/2000/svg" p-id="2155" xmlns:xlink="http://www.w3.org/1999/xlink" width="200" height="200"><defs><style type="text/css"></style></defs><path d="M796.3136 687.0528h-71.6288c-11.3152 0-20.48 9.1648-20.48 20.48s9.1648 20.48 20.48 20.48h71.6288c13.056 0 23.7056 8.96 23.7056 19.968v101.6832c0 11.008-10.6496 19.968-23.7056 19.968H228.2496c-13.056 0-23.7056-8.96-23.7056-19.968v-101.6832c0-11.008 10.6496-19.968 23.7056-19.968h73.3696c11.3152 0 20.48-9.1648 20.48-20.48s-9.1648-20.48-20.48-20.48H228.2496c-35.6864 0-64.6656 27.3408-64.6656 60.928v101.6832c0 33.5872 29.0304 60.928 64.6656 60.928h568.064c35.6864 0 64.6656-27.3408 64.6656-60.928v-101.6832c0-33.5872-28.9792-60.928-64.6656-60.928z" fill="#353b48" p-id="2156"></path><path d="M512.3072 101.5296c-163.328 0-296.2432 132.9152-296.2432 296.2432 0 147.712 145.3568 294.3488 254.72 391.7824 11.8272 10.5472 26.6752 15.8208 41.5744 15.8208 14.7968 0 29.5936-5.2224 41.4208-15.7184 118.6304-105.1648 254.7712-244.736 254.7712-391.936 0-163.2768-132.9152-296.192-296.2432-296.192z m0 425.3184c-71.2704 0-129.0752-57.8048-129.0752-129.0752s57.8048-129.0752 129.0752-129.0752c71.2704 0 129.0752 57.8048 129.0752 129.0752s-57.8048 129.0752-129.0752 129.0752z" fill="#353b48" p-id="2157"></path></svg>