<?xml version="1.0" standalone="no"?><!DOCTYPE svg PUBLIC "-//W3C//DTD SVG 1.1//EN" "http://www.w3.org/Graphics/SVG/1.1/DTD/svg11.dtd"><svg t="1621004518386" class="icon" viewBox="0 0 1039 1024" version="1.1" xmlns="http://www.w3.org/2000/svg" p-id="1649" xmlns:xlink="http://www.w3.org/1999/xlink" width="202.9296875" height="200"><defs><style type="text/css"></style></defs><path d="M462.619289 83.68731c-12.994924 2.598985-40.024365 12.994924-60.816243 22.871066C284.328934 164.255838 244.824365 313.437563 317.076142 425.193909c97.721827 151.780711 335.788832 127.870051 402.322843-40.544163C783.853807 221.433503 637.790863 49.900508 462.619289 83.68731zM369.055838 570.217259c-115.394924 20.791878-212.596954 114.35533-236.507615 227.671066-8.836548 42.62335-9.876142 82.127919-2.598984 96.682233 7.796954 14.034518 40.544162 29.108629 78.48934 36.385787 47.82132 8.316751 429.872081 12.475127 534.871066 5.19797 133.587817-8.316751 166.335025-23.390863 166.335025-75.370559-0.519797-72.251777-29.628426-145.543147-78.48934-198.042639-36.385787-38.464975-70.172589-61.336041-117.993909-80.048731-34.306599-12.994924-37.945178-12.994924-182.968528-14.034518-81.608122-0.519797-153.859898 0-161.137055 1.559391z" p-id="1650"></path></svg>