<?xml version="1.0" standalone="no"?><!DOCTYPE svg PUBLIC "-//W3C//DTD SVG 1.1//EN" "http://www.w3.org/Graphics/SVG/1.1/DTD/svg11.dtd"><svg t="1621004506312" class="icon" viewBox="0 0 1024 1024" version="1.1" xmlns="http://www.w3.org/2000/svg" p-id="1334" xmlns:xlink="http://www.w3.org/1999/xlink" width="200" height="200"><defs><style type="text/css"></style></defs><path d="M441.344 17.408c-14.848 4.096-44.032 15.36-65.024 25.6-46.592 23.04-86.016 64-111.616 117.248-28.16 57.344-34.304 89.6-34.304 174.08v73.728l-33.28 2.56c-39.936 3.584-65.024 19.968-79.872 52.224-8.704 19.456-9.728 37.376-9.728 249.856 0 149.504 2.048 233.472 5.632 243.2 7.168 19.456 28.672 40.96 53.248 54.272 20.48 11.264 24.064 11.264 325.12 12.8 167.424 1.024 316.416 0 331.264-1.536 35.84-4.608 57.344-19.968 74.752-53.76l14.336-28.16-1.536-230.4c-1.536-227.328-1.536-230.912-12.8-251.904-15.872-28.672-40.448-46.592-74.752-53.248l-29.184-6.144V325.632c0-115.2-18.944-168.96-83.456-233.984-39.936-40.448-73.216-60.416-124.416-73.728-35.84-9.216-107.008-9.216-144.384-0.512z m159.232 68.608c41.472 20.48 83.968 65.024 105.984 110.592 15.36 32.256 15.36 33.28 15.36 120.32V404.48H307.2V330.752c0-88.064 8.704-123.392 43.008-173.056 43.008-63.488 100.352-92.672 175.616-89.6 34.304 1.536 47.104 4.608 74.752 17.92z m-55.296 469.504c8.704 4.608 23.04 14.848 31.232 23.552 19.968 20.992 23.552 69.12 7.168 101.376-6.144 12.288-15.36 23.552-20.992 24.576-8.704 2.56-9.728 7.68-9.728 64.512 0 56.32-1.024 62.976-11.264 73.728-15.872 16.896-46.08 16.384-59.904-1.536-9.728-12.288-10.752-20.48-10.752-73.728 0-57.856-0.512-59.904-13.312-72.192-26.112-24.064-34.816-65.024-20.48-98.304 17.408-41.472 67.584-60.928 108.032-41.984z" p-id="1335" fill="#ffffff"></path></svg>