<?xml version="1.0" standalone="no"?><!DOCTYPE svg PUBLIC "-//W3C//DTD SVG 1.1//EN" "http://www.w3.org/Graphics/SVG/1.1/DTD/svg11.dtd"><svg t="1620876128589" class="icon" viewBox="0 0 1024 1024" version="1.1" xmlns="http://www.w3.org/2000/svg" p-id="1315" xmlns:xlink="http://www.w3.org/1999/xlink" width="200" height="200"><defs><style type="text/css"></style></defs><path d="M693.743936 619.671693v7.288939c0 58.375449-47.378102 105.753551-105.753552 105.753551v0.479536h-16.78374v-219.275577h16.78374c58.375449 0 105.753551 47.378102 105.753552 105.753551z" fill="#FF4893" p-id="1316"></path><path d="M455.990259 513.918142h115.216385v219.275577h-115.216385zM455.990259 294.642565h115.216385v218.764072h-115.216385z" fill="#5FCEFF" p-id="1317"></path><path d="M571.206644 513.406637v-218.764072h-136.539728c-58.375449 0-105.753551 47.378102-105.753551 105.753551v7.25697c0 58.407418 47.378102 105.753551 105.753551 105.753551h21.323343v219.787082h132.000125v-0.479536c58.375449 0 105.753551-47.378102 105.753552-105.753551v-7.288939c0-58.375449-47.378102-105.753551-105.753552-105.753551h-16.78374v-0.511505z m-59.909963-443.858012c245.458212 0 444.369517 198.975243 444.369517 444.369517 0 245.458212-198.911305 444.369517-444.369517 444.369517-245.394274 0-444.369517-198.911305-444.369517-444.369517 0-245.394274 198.975243-444.369517 444.369517-444.369517z" fill="#FFB578" p-id="1318"></path><path d="M455.990259 294.642565v218.764072h-21.323343c-58.375449 0-105.753551-47.346133-105.753551-105.753551v-7.25697c0-58.375449 47.378102-105.753551 105.753551-105.753551h21.323343z" fill="#FF4893" p-id="1319"></path><path d="M587.990384 535.784958h-153.320271c-70.651556 0-128.131872-57.480316-128.131872-128.135069v-7.25697c0-70.651556 57.480316-128.131872 128.131872-128.131872a22.378321 22.378321 0 1 1 0 44.756642c-45.971465 0-83.37523 37.403765-83.37523 83.37523v7.25697c0 45.971465 37.403765 83.37523 83.37523 83.37523h153.320271a22.378321 22.378321 0 1 1 0 44.759839z" fill="#4F46A3" p-id="1320"></path><path d="M587.990384 755.092504a22.378321 22.378321 0 1 1 0-44.756642c45.974662 0 83.37523-37.400568 83.375231-83.37523v-7.288939c0-45.974662-37.400568-83.37523-83.375231-83.37523h-153.320271a22.378321 22.378321 0 1 1 0-44.756642h153.320271c70.654753 0 128.131872 57.477119 128.131873 128.131872v7.288939c0 70.654753-57.480316 128.131872-128.131873 128.131872z" fill="#4F46A3" p-id="1321"></path><path d="M587.990384 755.57204h-259.077019a22.378321 22.378321 0 1 1 0-44.756642h259.077019a22.378321 22.378321 0 1 1 0 44.756642zM693.743936 317.020886h-259.07702a22.378321 22.378321 0 1 1 0-44.756642h259.07702a22.378321 22.378321 0 1 1 0 44.756642z" fill="#4F46A3" p-id="1322"></path><path d="M455.990259 865.545503a22.378321 22.378321 0 0 1-22.378321-22.378321V184.73304a22.378321 22.378321 0 1 1 44.756642 0v658.434142a22.378321 22.378321 0 0 1-22.378321 22.378321zM571.206644 865.545503a22.378321 22.378321 0 0 1-22.378321-22.378321V184.73304a22.378321 22.378321 0 1 1 44.756642 0v658.434142a22.378321 22.378321 0 0 1-22.378321 22.378321z" fill="#4F46A3" p-id="1323"></path><path d="M511.296681 980.66598c-257.366676 0-466.747838-209.381162-466.747838-466.747838 0-257.363479 209.381162-466.747838 466.747838-466.747838s466.747838 209.381162 466.747838 466.747838c0 257.363479-209.381162 466.747838-466.747838 466.747838z m0-888.739034c-232.686585 0-421.991196 189.304611-421.991196 421.991196s189.304611 421.991196 421.991196 421.991196c232.689782 0 421.991196-189.304611 421.991196-421.991196s-189.304611-421.991196-421.991196-421.991196z" fill="#4F46A3" p-id="1324"></path><path d="M156.178302 470.05983a22.378321 22.378321 0 0 1-22.033055-26.441585 378.992851 378.992851 0 0 1 25.006175-82.054909 22.378321 22.378321 0 0 1 41.057825 17.81634 334.101939 334.101939 0 0 0-22.04904 72.352309 22.384715 22.384715 0 0 1-21.981905 18.327845zM511.296681 897.546502c-211.532678 0-383.62836-172.095682-383.62836-383.62836a22.378321 22.378321 0 1 1 44.756642 0c0 186.852587 152.015935 338.871718 338.871718 338.871718a22.378321 22.378321 0 1 1 0 44.756642z" fill="#4F46A3" p-id="1325"></path></svg>