<?xml version="1.0" standalone="no"?><!DOCTYPE svg PUBLIC "-//W3C//DTD SVG 1.1//EN" "http://www.w3.org/Graphics/SVG/1.1/DTD/svg11.dtd"><svg t="1620879954789" class="icon" viewBox="0 0 1024 1024" version="1.1" xmlns="http://www.w3.org/2000/svg" p-id="5343" xmlns:xlink="http://www.w3.org/1999/xlink" width="200" height="200"><defs><style type="text/css"></style></defs><path d="M234.057143 413.257143l321.828571-219.428572c51.2-36.571429 120.685714-32.914286 171.885715 3.657143l142.628571 106.057143c18.285714 14.628571 29.257143 36.571429 29.257143 58.514286v497.371428c0 40.228571-32.914286 73.142857-73.142857 73.142858h-548.571429c-40.228571 0-73.142857-32.914286-73.142857-73.142858V475.428571c-3.657143-25.6 7.314286-47.542857 29.257143-62.171428z" fill="#EFF0FE" p-id="5344"></path><path d="M804.571429 950.857143H219.428571c-80.457143 0-146.285714-65.828571-146.285714-146.285714V420.571429c0-47.542857 21.942857-91.428571 62.171429-117.028572l292.571428-201.142857c51.2-32.914286 117.028571-32.914286 164.571429 0l292.571428 201.142857c40.228571 25.6 62.171429 73.142857 62.171429 120.685714V804.571429c3.657143 80.457143-62.171429 146.285714-142.628571 146.285714zM168.228571 347.428571c-25.6 18.285714-40.228571 43.885714-40.228571 76.8V804.571429c0 51.2 40.228571 91.428571 91.428571 91.428571h585.142858c51.2 0 91.428571-40.228571 91.428571-91.428571V420.571429c0-29.257143-14.628571-58.514286-40.228571-76.8l-292.571429-201.142858c-29.257143-21.942857-73.142857-21.942857-102.4 0l-292.571429 204.8z" fill="#262626" p-id="5345"></path><path d="M431.542857 658.285714h164.571429c14.628571 0 29.257143 10.971429 29.257143 29.257143 0 14.628571-10.971429 29.257143-29.257143 29.257143h-164.571429c-14.628571 0-29.257143-10.971429-29.257143-29.257143s10.971429-29.257143 29.257143-29.257143z" fill="#5360FF" p-id="5346"></path></svg>