<?xml version="1.0" standalone="no"?><!DOCTYPE svg PUBLIC "-//W3C//DTD SVG 1.1//EN" "http://www.w3.org/Graphics/SVG/1.1/DTD/svg11.dtd"><svg t="1620880181467" class="icon" viewBox="0 0 1024 1024" version="1.1" xmlns="http://www.w3.org/2000/svg" p-id="2007" xmlns:xlink="http://www.w3.org/1999/xlink" width="200" height="200"><defs><style type="text/css"></style></defs><path d="M900.4032 432.5888l-352.3072-309.6576c-22.6816-19.9168-56.832-19.9168-79.5136 0L116.2752 432.5888c-19.0464 16.7424-25.5488 42.9056-16.64 66.6624 8.96 23.7056 31.0784 39.0144 56.3712 39.0144h35.7376v353.4336c0 11.3152 9.1648 20.48 20.48 20.48h239.9232c11.3152 0 20.48-9.1648 20.48-20.48v-187.4432h71.3728v187.4432c0 11.3152 9.1648 20.48 20.48 20.48h239.9232c11.3152 0 20.48-9.1648 20.48-20.48v-353.4336h35.7376c25.2928 0 47.4112-15.3088 56.3712-39.0144 9.0112-23.7568 2.4576-49.92-16.5888-66.6624z" fill="#b4b8c1" p-id="2008"></path></svg>